# xmcd CD database file
#
# Track frame offsets:
#	150
#	19340
#	38058
#	51435
#	63617
#	80293
#	98474
#	120567
#	142895
#
# Disc length: 2061 seconds
#
# Revision: 0
# Processed by: cddbd v1.5.2PL0 Copyright (c) Steve Scherf et al.
# Submitted via: CdAid (MTCDDB.DLL V2003.12.21)
#
DISCID=6f080b09
DTITLE=Jerry Butler - Power Of Love
DYEAR=1973
DGENRE=Soul
TTITLE0=Memories Don't Leave Like People Do
TTITLE1=What Would I Do Without Your Love
TTITLE2=That's How Heartaches Are Made
TTITLE3=Power Of Love
TTITLE4=Don't Want To Lose You
TTITLE5=What Do You Do On A Sunday Afternoon
TTITLE6=Whatever's Fair
TTITLE7=Whatever Goes Around
TTITLE8=Too Many Danger Signs
EXTD=ID3G:  42 YEAR: 1973
EXTT0=
EXTT1=
EXTT2=
EXTT3=
EXTT4=
EXTT5=
EXTT6=
EXTT7=
EXTT8=
PLAYORDER=
